<svg version="1.2" xmlns="http://www.w3.org/2000/svg" viewBox="0 0 3556 2000" width="3556" height="2000">
	<title>6804263</title>
	<style>
		tspan { white-space:pre } 
		.s0 { fill: #0090c3 } 
		.s1 { fill: #ffffff } 
		.s2 { fill: #3fd5fe } 
		.s3 { fill: #feb800 } 
		.s4 { mix-blend-mode: multiply;fill: none;stroke: #3fd5fe;stroke-width: 5 } 
		.s5 { mix-blend-mode: multiply;fill: #3fd5fe } 
	</style>
	<g id="Background">
		<rect width="3556" height="2000" id="Background" style="fill: #ffffff"/>
	</g>
	<g id="Design">
		<g id="Shapes">
			<path id="Shape" class="s0" d="m3183.9 403.4l0.8 0.9c336.6 336.6 336.6 882.4 0 1219l-1532.2 1532.2c-336.6 336.7-882.4 336.7-1219 0l-0.9-0.8c-336.6-336.6-336.6-882.4 0-1219.1l1532.2-1532.2c336.7-336.6 882.5-336.6 1219.1 0z"/>
			<path id="Shape" class="s1" d="m1818.6-174.6l1.3 1.4c299.2 299.1 299.2 784.2 0 1083.3l-796.7 796.7c-299.1 299.1-784.1 299.1-1083.2 0l-1.4-1.4c-299.1-299.1-299.1-784.2 0-1083.3l796.7-796.7c299.1-299.1 784.1-299.1 1083.3 0z"/>
			<path id="Shape" class="s2" d="m413 78.8c73.1 73.1 73.1 191.5 0 264.5l-482.1 482.1c-73 73.1-191.4 73.1-264.5 0-73-73-73-191.4 0-264.4l482.2-482.2c73-73 191.4-73 264.4 0z"/>
			<path id="Shape" class="s2" d="m3465.4 1696.3c73 73 73 191.4 0 264.4l-342.3 342.3c-73 73-191.4 73-264.4 0-73.1-73.1-73.1-191.5 0-264.5l342.2-342.2c73-73.1 191.4-73.1 264.5 0z"/>
			<path id="Shape" class="s3" d="m3498.9 61.5c119.5 119.5 119.5 313.3 0 432.8l-744.5 744.5c-119.5 119.5-313.3 119.5-432.8 0-119.6-119.5-119.6-313.3 0-432.8l744.5-744.5c119.5-119.5 313.3-119.5 432.8 0z"/>
			<path id="Shape" class="s2" d="m495.4 1696.3c73 73 73 191.4 0 264.4l-342.3 342.3c-73 73-191.4 73-264.4 0-73.1-73.1-73.1-191.5 0-264.5l342.2-342.2c73-73.1 191.4-73.1 264.5 0z"/>
			<path id="Shape" class="s3" d="m2208.2 759.9c50.1 50.1 50.1 131.4 0 181.5l-679.6 679.6c-50.1 50.1-131.4 50.1-181.5 0-50.1-50.1-50.1-131.3 0-181.5l679.6-679.6c50.2-50.1 131.4-50.1 181.5 0z"/>
		</g>
	</g>
	<g id="Items">
		<path id="Lines" class="s4" d="m647.1 1456.9c9 9 9 23.5 0 32.5l-87.7 87.7c-9 9-23.5 9-32.5 0-9-9-9-23.5 0-32.5l87.7-87.7c9-9 23.5-9 32.5 0zm108 0c9 9 9 23.5 0 32.5l-87.7 87.7c-9 9-23.5 9-32.5 0-9-9-9-23.5 0-32.5l87.7-87.7c9-9 23.5-9 32.5 0zm107 0c9 9 9 23.5 0 32.5l-87.7 87.7c-9 9-23.5 9-32.5 0-9-9-9-23.5 0-32.5l87.7-87.7c9-9 23.5-9 32.5 0zm107 0c9 9 9 23.5 0 32.5l-87.7 87.7c-9 9-23.5 9-32.5 0-9-9-9-23.5 0-32.5l87.7-87.7c9-9 23.5-9 32.5 0z"/>
		<path id="Lines" class="s4" d="m655.1 407.9c9 9 9 23.5 0 32.5l-87.7 87.7c-9 9-23.5 9-32.5 0-9-9-9-23.5 0-32.5l87.7-87.7c9-9 23.5-9 32.5 0zm108 0c9 9 9 23.5 0 32.5l-87.7 87.7c-9 9-23.5 9-32.5 0-9-9-9-23.5 0-32.5l87.7-87.7c9-9 23.5-9 32.5 0zm107 0c9 9 9 23.5 0 32.5l-87.7 87.7c-9 9-23.5 9-32.5 0-9-9-9-23.5 0-32.5l87.7-87.7c9-9 23.5-9 32.5 0zm107 0c9 9 9 23.5 0 32.5l-87.7 87.7c-9 9-23.5 9-32.5 0-9-9-9-23.5 0-32.5l87.7-87.7c9-9 23.5-9 32.5 0z"/>
		<path id="Dots" class="s5" d="m-29 1600.8c0-6.8 5.5-12.2 12.2-12.2 6.8 0 12.3 5.4 12.3 12.2 0 6.7-5.5 12.2-12.3 12.2-6.7 0-12.2-5.5-12.2-12.2zm0-96.5c0-6.8 5.5-12.2 12.2-12.2 6.8 0 12.3 5.4 12.3 12.2 0 6.7-5.5 12.2-12.3 12.2-6.7 0-12.2-5.5-12.2-12.2zm0-96.5c0-6.8 5.5-12.3 12.2-12.3 6.8 0 12.3 5.5 12.3 12.3 0 6.7-5.5 12.2-12.3 12.2-6.7 0-12.2-5.5-12.2-12.2zm0-96.5c0-6.8 5.5-12.3 12.2-12.3 6.8 0 12.3 5.5 12.3 12.3 0 6.7-5.5 12.2-12.3 12.2-6.7 0-12.2-5.5-12.2-12.2zm0-96.6c0-6.7 5.5-12.2 12.2-12.2 6.8 0 12.3 5.5 12.3 12.2 0 6.8-5.5 12.3-12.3 12.3-6.7 0-12.2-5.5-12.2-12.3zm0-96.5c0-6.7 5.5-12.2 12.2-12.2 6.8 0 12.3 5.5 12.3 12.2 0 6.8-5.5 12.3-12.3 12.3-6.7 0-12.2-5.5-12.2-12.3zm96.5 482.6c0-6.8 5.5-12.2 12.3-12.2 6.7 0 12.2 5.4 12.2 12.2 0 6.7-5.5 12.2-12.2 12.2-6.8 0-12.3-5.5-12.3-12.2zm0-96.5c0-6.8 5.5-12.2 12.3-12.2 6.7 0 12.2 5.4 12.2 12.2 0 6.7-5.5 12.2-12.2 12.2-6.8 0-12.3-5.5-12.3-12.2zm0-96.5c0-6.8 5.5-12.3 12.3-12.3 6.7 0 12.2 5.5 12.2 12.3 0 6.7-5.5 12.2-12.2 12.2-6.8 0-12.3-5.5-12.3-12.2zm0-96.5c0-6.8 5.5-12.3 12.3-12.3 6.7 0 12.2 5.5 12.2 12.3 0 6.7-5.5 12.2-12.2 12.2-6.8 0-12.3-5.5-12.3-12.2zm0-96.6c0-6.7 5.5-12.2 12.3-12.2 6.7 0 12.2 5.5 12.2 12.2 0 6.8-5.5 12.3-12.2 12.3-6.8 0-12.3-5.5-12.3-12.3zm0-96.5c0-6.7 5.5-12.2 12.3-12.2 6.7 0 12.2 5.5 12.2 12.2 0 6.8-5.5 12.3-12.2 12.3-6.8 0-12.3-5.5-12.3-12.3zm96.6 482.6c0-6.8 5.4-12.2 12.2-12.2 6.7 0 12.2 5.4 12.2 12.2 0 6.7-5.5 12.2-12.2 12.2-6.8 0-12.2-5.5-12.2-12.2zm0-96.5c0-6.8 5.4-12.2 12.2-12.2 6.7 0 12.2 5.4 12.2 12.2 0 6.7-5.5 12.2-12.2 12.2-6.8 0-12.2-5.5-12.2-12.2zm0-96.5c0-6.8 5.4-12.3 12.2-12.3 6.7 0 12.2 5.5 12.2 12.3 0 6.7-5.5 12.2-12.2 12.2-6.8 0-12.2-5.5-12.2-12.2zm0-96.5c0-6.8 5.4-12.3 12.2-12.3 6.7 0 12.2 5.5 12.2 12.3 0 6.7-5.5 12.2-12.2 12.2-6.8 0-12.2-5.5-12.2-12.2zm0-96.6c0-6.7 5.4-12.2 12.2-12.2 6.7 0 12.2 5.5 12.2 12.2 0 6.8-5.5 12.3-12.2 12.3-6.8 0-12.2-5.5-12.2-12.3zm0-96.5c0-6.7 5.4-12.2 12.2-12.2 6.7 0 12.2 5.5 12.2 12.2 0 6.8-5.5 12.3-12.2 12.3-6.8 0-12.2-5.5-12.2-12.3zm96.5 482.6c0-6.8 5.4-12.2 12.2-12.2 6.7 0 12.2 5.4 12.2 12.2 0 6.7-5.5 12.2-12.2 12.2-6.8 0-12.2-5.5-12.2-12.2zm0-96.5c0-6.8 5.4-12.2 12.2-12.2 6.7 0 12.2 5.4 12.2 12.2 0 6.7-5.5 12.2-12.2 12.2-6.8 0-12.2-5.5-12.2-12.2zm0-96.5c0-6.8 5.4-12.3 12.2-12.3 6.7 0 12.2 5.5 12.2 12.3 0 6.7-5.5 12.2-12.2 12.2-6.8 0-12.2-5.5-12.2-12.2zm0-96.5c0-6.8 5.4-12.3 12.2-12.3 6.7 0 12.2 5.5 12.2 12.3 0 6.7-5.5 12.2-12.2 12.2-6.8 0-12.2-5.5-12.2-12.2zm0-96.6c0-6.7 5.4-12.2 12.2-12.2 6.7 0 12.2 5.5 12.2 12.2 0 6.8-5.5 12.3-12.2 12.3-6.8 0-12.2-5.5-12.2-12.3zm0-96.5c0-6.7 5.4-12.2 12.2-12.2 6.7 0 12.2 5.5 12.2 12.2 0 6.8-5.5 12.3-12.2 12.3-6.8 0-12.2-5.5-12.2-12.3z"/>
		<path id="Dots" class="s5" d="m1481.2 407.9c6.8 0 12.3 5.5 12.3 12.3 0 6.8-5.5 12.2-12.3 12.2-6.7 0-12.2-5.4-12.2-12.2 0-6.8 5.5-12.3 12.2-12.3zm96.7 0c6.7 0 12.2 5.5 12.2 12.3 0 6.8-5.5 12.2-12.2 12.2-6.8 0-12.3-5.4-12.3-12.2 0-6.8 5.5-12.3 12.3-12.3zm96.6 0c6.8 0 12.2 5.5 12.2 12.3 0 6.8-5.4 12.2-12.2 12.2-6.8 0-12.2-5.4-12.2-12.2 0-6.8 5.4-12.3 12.2-12.3zm96.6 0c6.8 0 12.3 5.5 12.3 12.3 0 6.8-5.5 12.2-12.3 12.2-6.7 0-12.2-5.4-12.2-12.2 0-6.8 5.5-12.3 12.2-12.3zm96.7 0c6.7 0 12.2 5.5 12.2 12.3 0 6.8-5.5 12.2-12.2 12.2-6.8 0-12.3-5.4-12.3-12.2 0-6.8 5.5-12.3 12.3-12.3zm96.6 0c6.8 0 12.2 5.5 12.2 12.3 0 6.8-5.4 12.2-12.2 12.2-6.8 0-12.2-5.4-12.2-12.2 0-6.8 5.4-12.3 12.2-12.3zm-483.2 96.7c6.8 0 12.3 5.5 12.3 12.3 0 6.7-5.5 12.2-12.3 12.2-6.7 0-12.2-5.5-12.2-12.2 0-6.8 5.5-12.3 12.2-12.3zm96.7 0c6.7 0 12.2 5.5 12.2 12.3 0 6.7-5.5 12.2-12.2 12.2-6.8 0-12.3-5.5-12.3-12.2 0-6.8 5.5-12.3 12.3-12.3zm96.6 0c6.8 0 12.2 5.5 12.2 12.3 0 6.7-5.4 12.2-12.2 12.2-6.8 0-12.2-5.5-12.2-12.2 0-6.8 5.4-12.3 12.2-12.3zm96.6 0c6.8 0 12.3 5.5 12.3 12.3 0 6.7-5.5 12.2-12.3 12.2-6.7 0-12.2-5.5-12.2-12.2 0-6.8 5.5-12.3 12.2-12.3zm96.7 0c6.7 0 12.2 5.5 12.2 12.3 0 6.7-5.5 12.2-12.2 12.2-6.8 0-12.3-5.5-12.3-12.2 0-6.8 5.5-12.3 12.3-12.3zm96.6 0c6.8 0 12.2 5.5 12.2 12.3 0 6.7-5.4 12.2-12.2 12.2-6.8 0-12.2-5.5-12.2-12.2 0-6.8 5.4-12.3 12.2-12.3zm-483.2 96.7c6.8 0 12.3 5.5 12.3 12.2 0 6.8-5.5 12.3-12.3 12.3-6.7 0-12.2-5.5-12.2-12.3 0-6.7 5.5-12.2 12.2-12.2zm96.7 0c6.7 0 12.2 5.5 12.2 12.2 0 6.8-5.5 12.3-12.2 12.3-6.8 0-12.3-5.5-12.3-12.3 0-6.7 5.5-12.2 12.3-12.2zm96.6 0c6.8 0 12.2 5.5 12.2 12.2 0 6.8-5.4 12.3-12.2 12.3-6.8 0-12.2-5.5-12.2-12.3 0-6.7 5.4-12.2 12.2-12.2zm96.6 0c6.8 0 12.3 5.5 12.3 12.2 0 6.8-5.5 12.3-12.3 12.3-6.7 0-12.2-5.5-12.2-12.3 0-6.7 5.5-12.2 12.2-12.2zm96.7 0c6.7 0 12.2 5.5 12.2 12.2 0 6.8-5.5 12.3-12.2 12.3-6.8 0-12.3-5.5-12.3-12.3 0-6.7 5.5-12.2 12.3-12.2zm96.6 0c6.8 0 12.2 5.5 12.2 12.2 0 6.8-5.4 12.3-12.2 12.3-6.8 0-12.2-5.5-12.2-12.3 0-6.7 5.4-12.2 12.2-12.2zm-483.2 96.7c6.8 0 12.3 5.4 12.3 12.2 0 6.8-5.5 12.2-12.3 12.2-6.7 0-12.2-5.4-12.2-12.2 0-6.8 5.5-12.2 12.2-12.2zm96.7 0c6.7 0 12.2 5.4 12.2 12.2 0 6.8-5.5 12.2-12.2 12.2-6.8 0-12.3-5.4-12.3-12.2 0-6.8 5.5-12.2 12.3-12.2zm96.6 0c6.8 0 12.2 5.4 12.2 12.2 0 6.8-5.4 12.2-12.2 12.2-6.8 0-12.2-5.4-12.2-12.2 0-6.8 5.4-12.2 12.2-12.2zm96.6 0c6.8 0 12.3 5.4 12.3 12.2 0 6.8-5.5 12.2-12.3 12.2-6.7 0-12.2-5.4-12.2-12.2 0-6.8 5.5-12.2 12.2-12.2zm96.7 0c6.7 0 12.2 5.4 12.2 12.2 0 6.8-5.5 12.2-12.2 12.2-6.8 0-12.3-5.4-12.3-12.2 0-6.8 5.5-12.2 12.3-12.2zm96.6 0c6.8 0 12.2 5.4 12.2 12.2 0 6.8-5.4 12.2-12.2 12.2-6.8 0-12.2-5.4-12.2-12.2 0-6.8 5.4-12.2 12.2-12.2z"/>
	</g>
</svg>