<?xml version="1.0" standalone="no"?><svg xmlns="http://www.w3.org/2000/svg" viewBox="0 0 1440 320"><path fill="#0099ff" fill-opacity="1" d="M0,128L26.7,149.3C53.3,171,107,213,160,192C213.3,171,267,85,320,58.7C373.3,32,427,64,480,80C533.3,96,587,96,640,128C693.3,160,747,224,800,256C853.3,288,907,288,960,277.3C1013.3,267,1067,245,1120,224C1173.3,203,1227,181,1280,186.7C1333.3,192,1387,224,1413,240L1440,256L1440,320L1413.3,320C1386.7,320,1333,320,1280,320C1226.7,320,1173,320,1120,320C1066.7,320,1013,320,960,320C906.7,320,853,320,800,320C746.7,320,693,320,640,320C586.7,320,533,320,480,320C426.7,320,373,320,320,320C266.7,320,213,320,160,320C106.7,320,53,320,27,320L0,320Z"></path></svg>