<?xml version="1.0" standalone="no"?><svg xmlns="http://www.w3.org/2000/svg" viewBox="0 0 1440 320"><path fill="#5000ca" fill-opacity="5" d="M0,224L36.9,32L73.8,32L110.8,160L147.7,32L184.6,192L221.5,192L258.5,192L295.4,288L332.3,128L369.2,64L406.2,288L443.1,64L480,128L516.9,288L553.8,64L590.8,256L627.7,224L664.6,288L701.5,320L738.5,192L775.4,96L812.3,64L849.2,32L886.2,160L923.1,32L960,96L996.9,96L1033.8,288L1070.8,64L1107.7,160L1144.6,192L1181.5,288L1218.5,128L1255.4,96L1292.3,32L1329.2,64L1366.2,320L1403.1,160L1440,288L1440,320L1403.1,320L1366.2,320L1329.2,320L1292.3,320L1255.4,320L1218.5,320L1181.5,320L1144.6,320L1107.7,320L1070.8,320L1033.8,320L996.9,320L960,320L923.1,320L886.2,320L849.2,320L812.3,320L775.4,320L738.5,320L701.5,320L664.6,320L627.7,320L590.8,320L553.8,320L516.9,320L480,320L443.1,320L406.2,320L369.2,320L332.3,320L295.4,320L258.5,320L221.5,320L184.6,320L147.7,320L110.8,320L73.8,320L36.9,320L0,320Z"></path></svg>